<?xml version="1.0" standalone="no"?>
<svg xmlns:xlink="http://www.w3.org/1999/xlink" xmlns="http://www.w3.org/2000/svg" class="vtree" width="960" height="800"><style>
    .vtree-node text { font: 14px sans-serif; }
    .vtree-link { fill: none; stroke: #888; stroke-width: 2px; }
    .vtree-table { stroke-width: 2px; stroke: steelblue; }
    path.vtree-table { fill: white; }
    g.vtree-node rect { fill: white; stroke: black; stroke-width: 1px; }
    g.vtree-node rect.number-text { fill: #d8f0ed; }
    g.vtree-node rect.string-text { fill: #e7f0db; }
    g.vtree-node rect.boolean-text { fill: #e1d8f0; }
    g.vtree-node rect.null-text { fill: #888; }
</style><g class="vtree-root" transform="translate(-28.04732599303304,-0.4215972788993554)scale(1.11728713807222)"><g class="vtree-node" transform="translate(480,170)"><g class="vtree-node" transform="translate(-181,0)"><path class="vtree-link" d="M181,146C181,278.5 226,278.5 226,411"/><path class="vtree-link" d="M181,146C181,272 -136,272 -136,398"/><g class="vtree-node" transform="translate(-50,341)"><path class="vtree-link" d="M-86,57C-86,57 80,57 80,57"/><g class="vtree-node" transform="translate(-161,0)"><g transform="translate(0,20)"><g transform="translate(0,0)"><rect class="string-text" x="0" y="0" width="42" height="25"/><text x="4" y="21">key</text></g><g transform="translate(42,0)"><rect class="string-text" x="0" y="0" width="107" height="25"/><text x="4" y="20">Setebredde min</text></g><g transform="translate(0,25)"><rect class="string-text" x="0" y="0" width="42" height="24"/><text x="4" y="20">value</text></g><g transform="translate(42,25)"><rect class="string-text" x="0" y="0" width="107" height="24"/><text x="4" y="20">45</text></g><g transform="translate(0,49)"><rect class="string-text" x="0" y="0" width="42" height="24"/><text x="4" y="20">unit</text></g><g transform="translate(42,49)"><rect class="string-text" x="0" y="0" width="107" height="24"/><text x="4" y="20">cm</text></g></g><g><text x="75" y="16" text-anchor="middle">techData[0]</text></g></g><g class="vtree-node" transform="translate(-2,0)"><g transform="translate(0,20)"><g transform="translate(0,0)"><rect class="string-text" x="0" y="0" width="42" height="25"/><text x="4" y="21">key</text></g><g transform="translate(42,0)"><rect class="string-text" x="0" y="0" width="121" height="25"/><text x="4" y="21">Kjørelengde maks</text></g><g transform="translate(0,25)"><rect class="string-text" x="0" y="0" width="42" height="24"/><text x="4" y="20">value</text></g><g transform="translate(42,25)"><rect class="string-text" x="0" y="0" width="121" height="24"/><text x="4" y="20">45</text></g><g transform="translate(0,49)"><rect class="string-text" x="0" y="0" width="42" height="24"/><text x="4" y="20">unit</text></g><g transform="translate(42,49)"><rect class="string-text" x="0" y="0" width="121" height="24"/><text x="4" y="20">km</text></g></g><g><text x="82" y="16" text-anchor="middle">techData[1]</text></g></g></g><g class="vtree-node" transform="translate(347,341)"><path class="vtree-link" d="M-121,70C-121,70 109,70 109,70"/><g class="vtree-node" transform="translate(-226,0)"><g transform="translate(0,20)"><g transform="translate(0,0)"><rect class="string-text" x="0" y="0" width="81" height="25"/><text x="4" y="20">uri</text></g><g transform="translate(81,0)"><rect class="string-text" x="0" y="0" width="128" height="25"/><text x="4" y="21">12345/1223456.jpg</text></g><g transform="translate(0,25)"><rect class="string-text" x="0" y="0" width="81" height="25"/><text x="4" y="21">priority</text></g><g transform="translate(81,25)"><rect class="number-text" x="0" y="0" width="128" height="25"/><text x="4" y="20">1</text></g><g transform="translate(0,50)"><rect class="string-text" x="0" y="0" width="81" height="25"/><text x="4" y="21">type</text></g><g transform="translate(81,50)"><rect class="string-text" x="0" y="0" width="128" height="25"/><text x="4" y="20">IMAGE</text></g><g transform="translate(0,75)"><rect class="string-text" x="0" y="0" width="81" height="25"/><text x="4" y="21">sourceType</text></g><g transform="translate(81,75)"><rect class="string-text" x="0" y="0" width="128" height="25"/><text x="4" y="20">IMPORT</text></g></g><g><text x="105" y="16" text-anchor="middle">media[0]</text></g></g><g class="vtree-node" transform="translate(-7,0)"><g transform="translate(0,20)"><g transform="translate(0,0)"><rect class="string-text" x="0" y="0" width="81" height="24"/><text x="4" y="20">uri</text></g><g transform="translate(81,0)"><rect class="string-text" x="0" y="0" width="151" height="24"/><text x="4" y="20">https://host.to/123.mp4</text></g><g transform="translate(0,24)"><rect class="string-text" x="0" y="0" width="81" height="25"/><text x="4" y="21">priority</text></g><g transform="translate(81,24)"><rect class="number-text" x="0" y="0" width="151" height="25"/><text x="4" y="20">2</text></g><g transform="translate(0,49)"><rect class="string-text" x="0" y="0" width="81" height="25"/><text x="4" y="21">type</text></g><g transform="translate(81,49)"><rect class="string-text" x="0" y="0" width="151" height="25"/><text x="4" y="20">VIDEO</text></g><g transform="translate(0,74)"><rect class="string-text" x="0" y="0" width="81" height="25"/><text x="4" y="21">sourceType</text></g><g transform="translate(81,74)"><rect class="string-text" x="0" y="0" width="151" height="25"/><text x="4" y="20">EXTERNALURL</text></g></g><g><text x="116" y="16" text-anchor="middle">media[1]</text></g></g></g><g transform="translate(0,0)"><rect class="string-text" x="0" y="0" width="110" height="24"/><text x="4" y="20">title</text></g><g transform="translate(110,0)"><rect class="string-text" x="0" y="0" width="251" height="24"/><text x="4" y="20">Mini Crosser X1/X2 4W</text></g><g transform="translate(0,24)"><rect class="string-text" x="0" y="0" width="110" height="24"/><text x="4" y="20">articleName</text></g><g transform="translate(110,24)"><rect class="string-text" x="0" y="0" width="251" height="24"/><text x="4" y="20">mini-crosser-x1-x2-4w</text></g><g transform="translate(0,48)"><rect class="string-text" x="0" y="0" width="110" height="25"/><text x="4" y="20">shortDescription</text></g><g transform="translate(110,48)"><rect class="string-text" x="0" y="0" width="251" height="25"/><text x="4" y="21">4-hjuls scooter med manuell regu...</text></g><g transform="translate(0,73)"><rect class="string-text" x="0" y="0" width="110" height="24"/><text x="4" y="20">text</text></g><g transform="translate(110,73)"><rect class="string-text" x="0" y="0" width="251" height="24"/><text x="4" y="20">Mini Crosser modell X1/ X2
    ...</text></g><g transform="translate(0,97)"><rect class="string-text" x="0" y="0" width="110" height="24"/><text x="4" y="20">manufacturer</text></g><g transform="translate(110,97)"><rect class="string-text" x="0" y="0" width="251" height="24"/><text x="4" y="20">Medema AS</text></g><g transform="translate(0,121)"><rect class="string-text" x="0" y="0" width="110" height="24"/><text x="4" y="20">supplierRef</text></g><g transform="translate(110,121)"><rect class="string-text" x="0" y="0" width="251" height="24"/><text x="4" y="20">1500-1530</text></g><g transform="translate(0,145)"><rect class="string-text" x="0" y="0" width="110" height="25"/><text x="4" y="21">isoCategory</text></g><g transform="translate(110,145)"><rect class="string-text" x="0" y="0" width="251" height="25"/><text x="4" y="20">12230301</text></g><g transform="translate(0,170)"><rect class="string-text" x="0" y="0" width="110" height="25"/><text x="4" y="21">accessory</text></g><g transform="translate(110,170)"><rect class="boolean-text" x="0" y="0" width="251" height="25"/><text x="4" y="20">false</text></g><g transform="translate(0,195)"><rect class="string-text" x="0" y="0" width="110" height="24"/><text x="4" y="20">sparePart</text></g><g transform="translate(110,195)"><rect class="boolean-text" x="0" y="0" width="251" height="24"/><text x="4" y="20">false</text></g><g transform="translate(0,219)"><rect class="string-text" x="0" y="0" width="110" height="24"/><text x="4" y="20">seriesId</text></g><g transform="translate(110,219)"><rect class="string-text" x="0" y="0" width="251" height="24"/><text x="4" y="20">603474bc-a8e8-471c-87ef-09bdc57b...</text></g><g transform="translate(0,243)"><rect class="string-text" x="0" y="0" width="110" height="24"/><text x="4" y="20">published</text></g><g transform="translate(110,243)"><rect class="string-text" x="0" y="0" width="251" height="24"/><text x="4" y="20">2023-08-22T13:39:51.884163</text></g><g transform="translate(0,267)"><rect class="string-text" x="0" y="0" width="110" height="24"/><text x="4" y="20">expired</text></g><g transform="translate(110,267)"><rect class="string-text" x="0" y="0" width="251" height="24"/><text x="4" y="20">2033-08-22T13:39:51.884163</text></g></g></g></g></svg>